Coordinates
version=1
nRows=29
nColumns=24
inDegrees=yes

Units are S.I. units (second, meters, Newtons, ...)
Angles are in degrees.

endheader
time	pelvis_tilt	pelvis_list	pelvis_rotation	pelvis_tx	pelvis_ty	pelvis_tz	hip_flexion_r	hip_adduction_r	hip_rotation_r	knee_angle_r	ankle_angle_r	subtalar_angle_r	mtp_angle_r	hip_flexion_l	hip_adduction_l	hip_rotation_l	knee_angle_l	ankle_angle_l	subtalar_angle_l	mtp_angle_l	lumbar_extension	lumbar_bending	lumbar_rotation
      4.59000000	      2.13892980	     -8.82525538	     -3.65576827	     -2.13464527	      0.92228409	      0.27506287	    -21.13944387	     10.86616204	      1.01003785	     -6.51983697	     17.23784849	      4.33677069	      0.00000000	     24.22332502	     -7.51044641	     -5.42585325	     -4.93504305	      5.64425895	     -6.93830178	      0.00000000	    -28.30726405	      4.64910446	      9.66906319
      4.60000000	      2.27125099	     -8.31392327	     -3.30881290	     -2.11992708	      0.92131184	      0.27336230	    -21.36563827	     10.17833046	      0.31971056	     -7.97333655	     17.04231678	      5.15993658	      0.00000000	     24.59443553	     -6.60648948	     -4.11591395	     -7.01129065	      4.17984967	     -8.66995926	      0.00000000	    -28.32227347	      4.10297438	      9.08622725
      4.61000000	      2.41533561	     -7.66839077	     -2.87158361	     -2.10506388	      0.92063790	      0.27148660	    -21.52676556	      9.37629888	     -0.50306854	     -9.54198250	     16.62548365	      5.96760859	      0.00000000	     25.00946771	     -5.51678701	     -2.84792014	     -9.31380000	      2.43153688	    -10.58777566	      0.00000000	    -28.33442622	      3.42878438	      8.36817923
      4.62000000	      2.59162389	     -6.93774912	     -2.34543159	     -2.09002346	      0.92026612	      0.26937547	    -21.65762011	      8.49554043	     -1.46154091	    -11.22045937	     15.95904095	      6.83773339	      0.00000000	     25.40937825	     -4.29342381	     -1.66919170	    -11.73495354	      0.56937486	    -12.56509114	      0.00000000	    -28.37852070	      2.71768401	      7.55223252
      4.63000000	      2.81113791	     -6.16675969	     -1.76772068	     -2.07477119	      0.92017776	      0.26716020	    -21.75385552	      7.57060130	     -2.50791206	    -13.06292298	     15.01817395	      7.76187427	      0.00000000	     25.71679416	     -3.01363182	     -0.60080221	    -14.15301731	     -1.15332546	    -14.41176381	      0.00000000	    -28.45658425	      1.97240314	      6.70094158
      4.64000000	      3.08937558	     -5.39477654	     -1.19417648	     -2.05929621	      0.92040185	      0.26489325	    -21.80957688	      6.61274208	     -3.59220411	    -15.11062788	     13.72879503	      8.73281344	      0.00000000	     25.85082236	     -1.74845640	      0.30543223	    -16.46122381	     -2.52796218	    -15.98714516	      0.00000000	    -28.58979430	      1.22844494	      5.87077749
      4.65000000	      3.40202769	     -4.65703124	     -0.66523860	     -2.04368124	      0.92088037	      0.26264225	    -21.75994474	      5.64588441	     -4.61685782	    -17.41543073	     12.06058136	      9.66749515	      0.00000000	     25.80808447	     -0.55652302	      1.02327219	    -18.60322293	     -3.39341325	    -17.22627144	      0.00000000	    -28.76197706	      0.51060603	      5.12623634
      4.66000000	      3.70993288	     -3.95936738	     -0.21839781	     -2.02793853	      0.92160945	      0.26049366	    -21.53344774	      4.66435469	     -5.50995104	    -19.99257289	      9.90582800	     10.51808405	      0.00000000	     25.59357229	      0.53276006	      1.51520694	    -20.51497090	     -3.66116767	    -18.07813347	      0.00000000	    -28.91541825	     -0.19135385	      4.48478759
      4.67000000	      4.02968803	     -3.33719248	      0.09189316	     -2.01230667	      0.92259903	      0.25844635	    -21.07435509	      3.67437426	     -6.24345142	    -22.90584140	      7.26175565	     11.19711468	      0.00000000	     25.19672384	      1.47557162	      1.80269883	    -22.18998690	     -3.33492147	    -18.66202230	      0.00000000	    -29.11105886	     -0.83850783	      4.00947793
      4.68000000	      4.27165909	     -2.80194181	      0.23822885	     -1.99694895	      0.92372486	      0.25660440	    -20.24713839	      2.69672762	     -6.71869906	    -26.15584254	      4.14393501	     11.59927319	      0.00000000	     24.73045110	      2.25122520	      1.89262736	    -23.63048791	     -2.50423769	    -19.03277980	      0.00000000	    -29.25591364	     -1.43659447	      3.73594234
      4.69000000	      4.46387089	     -2.22346881	      0.33896125	     -1.98177816	      0.92497273	      0.25476695	    -19.12606704	      1.63053328	     -7.11866298	    -29.64305250	      0.66821591	     11.84741930	      0.00000000	     24.16259782	      3.04670631	      1.88141523	    -24.81834757	     -1.36093251	    -19.21619928	      0.00000000	    -29.35715119	     -2.07728982	      3.45677923
      4.70000000	      4.52690838	     -1.69041269	      0.27494867	     -1.96700611	      0.92623193	      0.25334374	    -17.60178235	      0.59360362	     -7.15629812	    -33.32626084	     -3.08260508	     11.74428345	      0.00000000	     23.63164320	      3.67700944	      1.56767373	    -25.83210549	      0.24994348	    -18.88249274	      0.00000000	    -29.34892235	     -2.74950289	      3.31699940
      4.71000000	      4.36222830	     -1.15325233	      0.10684300	     -1.95272711	      0.92728988	      0.25212009	    -15.56795472	     -0.44614186	     -7.00451761	    -37.18454624	     -6.86434711	     11.24424439	      0.00000000	     23.25042330	      4.25196101	      1.11793977	    -26.62998110	      1.88077295	    -18.42590972	      0.00000000	    -29.12861489	     -3.45579408	      3.27975516
      4.72000000	      3.93148105	     -0.56624775	     -0.07892488	     -1.93889811	      0.92798160	      0.25098777	    -13.03873764	     -1.49581874	     -6.75461143	    -41.14080453	    -10.41773903	     10.36695946	      0.00000000	     23.08263779	      4.84377090	      0.60205246	    -27.24352830	      3.49040324	    -17.76831475	      0.00000000	    -28.63279145	     -4.20679930	      3.20691274
      4.73000000	      3.42826665	      0.11150623	     -0.30084575	     -1.92542775	      0.92858282	      0.25005016	    -10.28952416	     -2.58834998	     -6.42158256	    -45.06280620	    -13.61525011	      9.07462534	      0.00000000	     22.89528061	      5.46458178	     -0.13151031	    -27.61037212	      5.02314769	    -17.01248436	      0.00000000	    -28.08279194	     -5.06229457	      3.07966582
      4.74000000	      2.86765208	      0.86679605	     -0.51437512	     -1.91230418	      0.92910620	      0.24919104	     -7.38024285	     -3.70205248	     -6.05422390	    -48.87516395	    -16.30225053	      7.36050086	      0.00000000	     22.68149442	      6.14097794	     -0.92335769	    -27.74814862	      6.39513681	    -16.21507076	      0.00000000	    -27.49679468	     -5.98750475	      2.91458240
      4.75000000	      2.29546962	      1.66962254	     -0.67814502	     -1.89944059	      0.92963777	      0.24832575	     -4.42146638	     -4.80532354	     -5.69323137	    -52.48118695	    -18.32992855	      5.30419726	      0.00000000	     22.39280532	      6.87751176	     -1.66058058	    -27.67076844	      7.58994473	    -15.43448882	      0.00000000	    -26.92529868	     -6.92684048	      2.65733758
      4.76000000	      1.79636702	      2.47096675	     -0.78773319	     -1.88675485	      0.93036342	      0.24738655	     -1.55359979	     -5.86495695	     -5.35034111	    -55.78936246	    -19.60391734	      3.08807225	      0.00000000	     21.93820588	      7.64746187	     -2.28273495	    -27.39432597	      8.59179392	    -14.74274415	      0.00000000	    -26.45759385	     -7.81614976	      2.32630424
      4.77000000	      1.39861675	      3.20128063	     -0.82506174	     -1.87419603	      0.93139786	      0.24631449	      1.15059140	     -6.81449971	     -5.04069745	    -58.71871217	    -20.08208094	      0.88407110	      0.00000000	     21.29179844	      8.40301878	     -2.71376125	    -26.94581818	      9.42118458	    -14.17257700	      0.00000000	    -26.13445701	     -8.56790344	      1.93238436
      4.78000000	      1.14981461	      3.78250693	     -0.81564227	     -1.86173414	      0.93287681	      0.24511665	      3.61683868	     -7.58400100	     -4.76821079	    -61.20718330	    -19.80154379	     -1.15107145	      0.00000000	     20.40823957	      9.06717882	     -2.91089290	    -26.35538164	     10.07385548	    -13.77339307	      0.00000000	    -26.00433001	     -9.09715792	      1.50612891
      4.79000000	      1.04496226	      4.16832571	     -0.76991730	     -1.84934537	      0.93480888	      0.24378789	      5.83231075	     -8.12920023	     -4.54924717	    -63.21818549	    -18.83422860	     -2.90926972	      0.00000000	     19.30405998	      9.58313360	     -2.92057510	    -25.64898042	     10.58364969	    -13.56689376	      0.00000000	    -26.05572696	     -9.34846284	      1.04196864
      4.80000000	      1.06502897	      4.32918673	     -0.62844622	     -1.83707005	      0.93715576	      0.24230333	      7.79310509	     -8.41937045	     -4.45097766	    -64.73635102	    -17.31267714	     -4.28459862	      0.00000000	     18.01891059	      9.92272669	     -2.61951011	    -24.89312605	     11.05800499	    -13.32104316	      0.00000000	    -26.28478954	     -9.29007292	      0.56196737
      4.81000000	      0.95716124	      4.30195760	     -0.53105472	     -1.82491627	      0.93946242	      0.24076748	      9.83639515	     -8.48170015	     -4.31543623	    -65.84501722	    -15.26839748	     -5.19908185	      0.00000000	     16.85591888	     10.06719048	     -2.30080634	    -24.08502650	     11.35998169	    -13.32568268	      0.00000000	    -26.33801710	     -9.00435493	      0.22908420
      4.82000000	      0.93338620	      4.10688311	     -0.38899147	     -1.81287420	      0.94198558	      0.23916762	     11.67919797	     -8.34523341	     -4.28972173	    -66.48353168	    -13.12546222	     -5.91724591	      0.00000000	     15.58116506	     10.04781085	     -1.84503935	    -23.25022184	     11.69723685	    -13.26717881	      0.00000000	    -26.50813309	     -8.50279493	     -0.07221964
      4.83000000	      0.90145478	      3.78977310	     -0.22399942	     -1.80092611	      0.94452446	      0.23754062	     13.42430613	     -8.04881522	     -4.31564435	    -66.69710148	    -10.86762916	     -6.33619879	      0.00000000	     14.31015530	      9.89254425	     -1.37339160	    -22.39005024	     11.96265242	    -13.25248620	      0.00000000	    -26.66704869	     -7.84805596	     -0.31993097
      4.84000000	      0.85411370	      3.42534128	     -0.03282797	     -1.78904406	      0.94697357	      0.23591989	     15.08181903	     -7.67434928	     -4.39094017	    -66.52037945	     -8.66739963	     -6.58436764	      0.00000000	     13.05425883	      9.67118059	     -0.91447443	    -21.50846589	     12.19999590	    -13.21406114	      0.00000000	    -26.80657997	     -7.13413335	     -0.53900341
      4.85000000	      0.79394057	      3.06659293	      0.19516660	     -1.77718372	      0.94925016	      0.23427547	     16.64692954	     -7.30401402	     -4.54339756	    -65.99067058	     -6.58119137	     -6.69291051	      0.00000000	     11.81303269	      9.44234837	     -0.47164359	    -20.61137676	     12.40901916	    -13.15876449	      0.00000000	    -26.91704510	     -6.41434943	     -0.77775234
      4.86000000	      0.71096708	      2.70233732	      0.41754492	     -1.76535799	      0.95130534	      0.23271559	     18.14152758	     -6.89129263	     -4.69349421	    -65.12460571	     -4.74337984	     -6.75017249	      0.00000000	     10.60006209	      9.18475729	     -0.06263423	    -19.70049954	     12.62590313	    -13.08672070	      0.00000000	    -26.98490164	     -5.70498657	     -0.97013595
      4.87000000	      0.63356879	      2.40629738	      0.70410681	     -1.75353434	      0.95311769	      0.23114397	     19.51369602	     -6.56607589	     -4.93708639	    -63.94650222	     -3.07599686	     -6.77546296	      0.00000000	      9.38600987	      8.99252611	      0.40648742	    -18.79239102	     12.79570692	    -13.01110719	      0.00000000	    -27.05513482	     -5.06640580	     -1.18758990
